<?xml version="1.0" encoding="utf-8"?>
<!-- Generator: Adobe Illustrator 22.0.1, SVG Export Plug-In . SVG Version: 6.00 Build 0)  -->
<svg version="1.1" xmlns="http://www.w3.org/2000/svg" xmlns:xlink="http://www.w3.org/1999/xlink" x="0px" y="0px"
	 viewBox="480 50 345 850" style="enable-background: new 480 50 345 850">
<style type="text/css">
	.st1{display:inline;}
	.st2{fill:#FFFFFF;}
	.st3{display:inline;fill:#2CAAFF;}
	.st4{opacity:0.2;clip-path:url(#SVGID_2_);fill:#272425;}
	.st5{opacity:0.2;clip-path:url(#SVGID_4_);fill:#272425;}
	.st6{clip-path:url(#SVGID_6_);fill:#1D487C;}
	.st7{clip-path:url(#SVGID_8_);fill:#1D487C;}
	.st8{clip-path:url(#SVGID_10_);fill:#1D487C;}
	.st9{fill:#1D487C;}
	.st10{fill:#2CAAFF;}
	.st11{opacity:0.2;clip-path:url(#SVGID_12_);fill:#272425;}
	.st12{opacity:0.2;clip-path:url(#SVGID_14_);fill:#272425;}
	.st13{clip-path:url(#SVGID_16_);fill:#2CAAFF;}
	.st14{clip-path:url(#SVGID_18_);fill:#2CAAFF;}
	.st15{clip-path:url(#SVGID_20_);fill:#2CAAFF;}
</style>
<g id="LOGO_1_-_COLOR_1" stroke="none" stroke-width="1" fill="none" fill-rule="evenodd">
	<g>
		<path class="st9" d="M 935.6 379.2 v 99.3 h -17 v -70.3 l -32.8 50.6 l -32.6 -50.6 v 70.3 h -17 v -99.3 h 18.6 l 31.1 48.2 l 31.2 -48.2 H 935.6 z"/>
		<path class="st9" d="M 976.7 396.3 v 24.1 h 37 l 4.3 17 h -41.3 v 24.1 h 49.8 v 17 h -66.8 v -99.3 h 66.8 v 17 H 976.7 z"/>
		<path class="st9" d="M 1117.6 379.3 v 59.6 c 0 5.8 -1.1 11.2 -3.3 16.2 c -2.2 5.1 -5.2 9.5 -8.9 13.3 c -3.8 3.8 -8.2 6.8 -13.3 8.9 c -5.1 2.2 -10.5 3.3 -16.3 3.3 c -5.8 0 -11.2 -1.1 -16.2 -3.3 c -5 -2.2 -9.4 -5.2 -13.2 -8.9 l 12.1 -12.1 c 4.8 4.8 10.6 7.2 17.3 7.2 c 6.9 0 12.8 -2.4 17.6 -7.2 c 2.4 -2.4 4.2 -5 5.4 -8 c 1.2 -3 1.8 -6.1 1.8 -9.4 v -59.6 H 1117.6 z"/>
		<path class="st9" d="M 1158.7 478.6 h -17 v -99.1 h 17 V 478.6 z"/>
		<path class="st9" d="M 1288.3 478.6 h -18.7 l -7.7 -17 l -7.7 -17 l -20.1 -44.5 l -20.1 44.5 h 25.8 l 7.7 17 h -41.1 l -7.7 17 H 1180 l 44.8 -99.3 h 18.7 L 1288.3 478.6 z"/>
		<path class="st9" d="M 1374.3 450.2 c 0 4.6 -0.8 8.8 -2.3 12.6 c -1.5 3.7 -3.7 6.9 -6.5 9.5 c -2.8 2.6 -6.2 4.6 -10.1 6 c -4 1.4 -8.4 2.1 -13.3 2.1 c -7.8 0 -14.8 -1.3 -21 -3.8 c -6.1 -2.5 -11.2 -5.4 -15.2 -8.6 l 11.8 -11.8 c 3.1 2.8 6.6 5 10.5 6.5 c 2.4 0.9 4.6 1.6 6.7 1.8 c 2.1 0.3 3.8 0.4 5.1 0.4 c 2.5 0 4.7 -0.3 6.7 -0.9 c 2 -0.6 3.8 -1.4 5.3 -2.5 c 3.2 -2.4 4.8 -5.5 4.8 -9.4 c 0 -2.4 -0.9 -4.5 -2.6 -6.4 c -1.3 -1.5 -3 -2.7 -5.1 -3.7 c -1.7 -0.9 -3.5 -1.7 -5.4 -2.3 c -1.9 -0.6 -3.6 -1.1 -5.1 -1.6 c -0.5 -0.2 -0.9 -0.3 -1.3 -0.4 c -0.4 0 -0.7 -0.2 -1 -0.4 c -0.2 0 -0.5 -0.1 -0.9 -0.3 c -2 -0.6 -4.8 -1.6 -8.6 -3 c -3.7 -1.4 -7.4 -3.4 -11.1 -5.8 c -8.6 -5.8 -12.9 -12.9 -12.9 -21.3 c 0 -5.6 1 -10.3 2.9 -14.1 c 1.9 -3.8 4.5 -6.9 7.6 -9.4 s 6.6 -4.1 10.4 -5.2 c 3.8 -1 7.6 -1.6 11.3 -1.6 c 6.8 0 12.5 0.8 17.2 2.4 c 4.6 1.6 8.3 3.2 11.1 4.8 c 1.4 0.9 2.6 1.7 3.6 2.5 c 1 0.8 1.9 1.5 2.6 2.2 l -12.1 12.2 c -2.6 -2.6 -5.2 -4.5 -7.8 -5.8 c -4 -1.9 -8.1 -2.8 -12.5 -2.8 c -1.9 0 -3.8 0.2 -5.7 0.7 c -1.9 0.5 -3.5 1.1 -5 1.8 c -4.2 2.6 -6.2 5.9 -6.2 10.1 c 0 2.6 0.9 4.7 2.6 6.5 c 1.2 1.4 2.9 2.7 5.1 3.8 c 1.8 0.9 3.7 1.7 5.7 2.3 s 3.8 1.1 5.5 1.6 l 1.7 0.4 c 0.5 0.2 1.4 0.5 2.7 0.9 c 1.3 0.4 2.9 0.9 4.7 1.7 c 1.8 0.8 3.8 1.7 5.9 2.7 c 2.1 1 4.2 2.3 6.3 3.7 C 1369.7 434.9 1374.3 442 1374.3 450.2 z"/>
	</g>
	<g>
		<path class="st10" d="M 867.4 563.5 h -12.1 c -2.5 0 -4.8 -0.5 -7 -1.4 c -2.2 -1 -4.1 -2.3 -5.7 -3.9 c -1.6 -1.6 -2.9 -3.6 -3.8 -5.8 c -1 -2.2 -1.4 -4.5 -1.4 -7 v -47.9 l 13.2 -3.3 v 21 h 7.7 l 3.3 13.2 h -11 v 17 c 0 1.4 0.5 2.6 1.4 3.5 c 1 1 2.1 1.4 3.4 1.4 h 8.8 L 867.4 563.5 z"/>
		<path class="st10" d="M 909.7 542.7 h -28.8 c 0.7 1.7 1.8 3.2 3.2 4.5 c 1.5 1.5 3.3 2.7 5.2 3.5 c 1.9 0.8 3.9 1.2 6 1.2 c 3 0 5.7 -0.7 8 -2.1 l 13.7 5.5 c -2.6 3.1 -5.8 5.5 -9.6 7.2 s -7.8 2.6 -12.2 2.6 c -4 0 -7.8 -0.8 -11.3 -2.3 s -6.6 -3.6 -9.2 -6.2 s -4.7 -5.7 -6.2 -9.2 c -1.5 -3.5 -2.3 -7.2 -2.3 -11.2 c 0 -4 0.8 -7.8 2.3 -11.3 c 1.5 -3.5 3.6 -6.6 6.2 -9.2 c 2.6 -2.6 5.7 -4.7 9.2 -6.2 c 3.5 -1.5 7.3 -2.3 11.3 -2.3 c 4 0 7.8 0.8 11.3 2.3 c 3.5 1.5 6.6 3.6 9.2 6.2 c 2.6 2.6 4.7 5.7 6.2 9.2 c 1.5 3.5 2.3 7.3 2.3 11.3 c 0 2.3 -0.3 4.5 -0.8 6.6 H 909.7 z M 895.3 520.2 c -4.2 0 -8 1.5 -11.2 4.6 c -1.4 1.4 -2.5 2.9 -3.2 4.6 h 28.8 c -0.7 -1.7 -1.8 -3.2 -3.2 -4.6 C 903.4 521.8 899.7 520.2 895.3 520.2 z"/>
		<path class="st10" d="M 978.2 556.5 c -2.6 2.6 -5.7 4.7 -9.2 6.2 c -3.5 1.5 -7.3 2.3 -11.3 2.3 c -4 0 -7.8 -0.8 -11.3 -2.3 s -6.6 -3.6 -9.2 -6.2 s -4.7 -5.7 -6.2 -9.2 c -1.5 -3.5 -2.3 -7.2 -2.3 -11.2 c 0 -4 0.8 -7.8 2.3 -11.3 c 1.5 -3.5 3.6 -6.6 6.2 -9.2 c 2.6 -2.6 5.7 -4.7 9.2 -6.2 c 3.5 -1.5 7.3 -2.3 11.3 -2.3 c 4 0 7.8 0.8 11.3 2.3 c 3.5 1.5 6.6 3.6 9.2 6.2 l -9.3 9.3 c -3.1 -3.1 -6.8 -4.6 -11.2 -4.6 c -4.2 0 -8 1.5 -11.2 4.6 c -3.1 3.1 -4.6 6.8 -4.6 11.2 c 0 4.3 1.5 8 4.6 11.1 c 1.5 1.5 3.3 2.7 5.2 3.5 c 1.9 0.8 3.9 1.2 6 1.2 c 4.5 0 8.2 -1.5 11.2 -4.6 L 978.2 556.5 z"/>
		<path class="st10" d="M 1010.3 507.1 c 3.6 0 6.8 0.7 9.8 2 c 2.9 1.4 5.4 3.2 7.5 5.6 c 2.1 2.4 3.7 5.1 4.8 8.3 c 1.1 3.1 1.7 6.5 1.7 10.1 v 30.4 H 1021 v -30.4 c 0 -1.8 -0.3 -3.4 -1 -4.9 c -0.7 -1.5 -1.6 -2.9 -2.9 -4.2 c -2.5 -2.5 -5.5 -3.7 -9 -3.7 c -3.6 0 -6.6 1.2 -9.1 3.7 c -2.5 2.5 -3.7 5.5 -3.7 9.1 v 30.4 h -13.2 v -76.9 h 13.2 V 513 c 2 -1.8 4.2 -3.2 6.7 -4.3 C 1004.4 507.6 1007.2 507.1 1010.3 507.1 z"/>
		<path class="st10" d="M 1068.4 507.1 c 3.6 0 6.8 0.7 9.8 2 c 2.9 1.4 5.4 3.2 7.5 5.6 c 2.1 2.4 3.7 5.1 4.8 8.3 c 1.1 3.1 1.7 6.5 1.7 10.1 v 30.4 h -13.2 v -30.4 c 0 -3.7 -1.3 -6.7 -3.8 -9.1 c -2.5 -2.5 -5.5 -3.7 -9 -3.7 c -3.6 0 -6.6 1.2 -9.1 3.7 c -2.5 2.5 -3.7 5.5 -3.7 9.1 v 30.4 h -13.2 v -54.9 h 13.2 v 4.2 c 2 -1.7 4.2 -3.1 6.7 -4.1 C 1062.6 507.6 1065.3 507.1 1068.4 507.1 z"/>
		<path class="st10" d="M 1126.2 507.1 c 4 0 7.8 0.8 11.3 2.3 c 3.5 1.5 6.6 3.6 9.2 6.2 c 2.6 2.6 4.7 5.7 6.2 9.2 c 1.5 3.5 2.3 7.3 2.3 11.3 c 0 4 -0.8 7.7 -2.3 11.2 c -1.5 3.5 -3.6 6.6 -6.2 9.2 s -5.7 4.7 -9.2 6.2 c -3.5 1.5 -7.3 2.3 -11.3 2.3 s -7.8 -0.8 -11.3 -2.3 s -6.6 -3.6 -9.2 -6.2 c -2.6 -2.6 -4.7 -5.7 -6.2 -9.2 c -1.5 -3.5 -2.3 -7.2 -2.3 -11.2 c 0 -4 0.8 -7.8 2.3 -11.3 c 1.5 -3.5 3.6 -6.6 6.2 -9.2 c 2.6 -2.6 5.7 -4.7 9.2 -6.2 C 1118.4 507.8 1122.2 507.1 1126.2 507.1 z M 1126.2 520.2 c -4.4 0 -8.1 1.5 -11.2 4.6 c -3.1 3.1 -4.6 6.8 -4.6 11.2 c 0 4.3 1.5 8 4.6 11.1 c 1.5 1.5 3.2 2.7 5.1 3.5 c 1.9 0.8 4 1.2 6.1 1.2 s 4.1 -0.4 6 -1.2 c 1.9 -0.8 3.6 -1.9 5.2 -3.5 c 3.1 -3.1 4.6 -6.8 4.6 -11.1 c 0 -4.4 -1.5 -8.1 -4.6 -11.2 C 1134.2 521.8 1130.4 520.2 1126.2 520.2 z"/>
		<path class="st10" d="M 1161.2 563.5 v -76.9 h 13.2 v 76.9 H 1161.2 z"/>
		<path class="st10" d="M 1209.5 507.1 c 4 0 7.8 0.8 11.3 2.3 c 3.5 1.5 6.6 3.6 9.2 6.2 c 2.6 2.6 4.7 5.7 6.2 9.2 c 1.5 3.5 2.3 7.3 2.3 11.3 c 0 4 -0.8 7.7 -2.3 11.2 c -1.5 3.5 -3.6 6.6 -6.2 9.2 s -5.7 4.7 -9.2 6.2 c -3.5 1.5 -7.3 2.3 -11.3 2.3 s -7.8 -0.8 -11.3 -2.3 s -6.6 -3.6 -9.2 -6.2 c -2.6 -2.6 -4.7 -5.7 -6.2 -9.2 c -1.5 -3.5 -2.3 -7.2 -2.3 -11.2 c 0 -4 0.8 -7.8 2.3 -11.3 c 1.5 -3.5 3.6 -6.6 6.2 -9.2 c 2.6 -2.6 5.7 -4.7 9.2 -6.2 C 1201.7 507.8 1205.4 507.1 1209.5 507.1 z M 1209.5 520.2 c -4.4 0 -8.1 1.5 -11.2 4.6 c -3.1 3.1 -4.6 6.8 -4.6 11.2 c 0 4.3 1.5 8 4.6 11.1 c 1.5 1.5 3.2 2.7 5.1 3.5 c 1.9 0.8 4 1.2 6.1 1.2 s 4.1 -0.4 6 -1.2 c 1.9 -0.8 3.6 -1.9 5.2 -3.5 c 3.1 -3.1 4.6 -6.8 4.6 -11.1 c 0 -4.4 -1.5 -8.1 -4.6 -11.2 C 1217.4 521.8 1213.7 520.2 1209.5 520.2 z"/>
		<path class="st10" d="M 1300.8 558 c 0 4 -0.8 7.7 -2.3 11.2 c -1.5 3.5 -3.6 6.6 -6.2 9.2 c -2.6 2.6 -5.7 4.7 -9.2 6.3 c -3.5 1.5 -7.3 2.3 -11.3 2.3 c -3.3 0 -6.4 -0.5 -9.3 -1.5 c -2.9 -1 -5.6 -2.5 -8.1 -4.4 l 9.6 -9.4 c 2.3 1.5 5 2.2 7.9 2.2 c 4.5 0 8.2 -1.6 11.2 -4.7 c 3.1 -3.1 4.6 -6.8 4.6 -11.1 V 536 c 0 -4.2 -1.5 -8 -4.6 -11.2 c -3.1 -3.1 -6.8 -4.6 -11.2 -4.6 c -4.2 0 -8 1.5 -11.2 4.6 c -3.1 3.2 -4.6 7 -4.6 11.2 c 0 4.4 1.5 8.1 4.6 11.2 c 3.2 3.1 7 4.6 11.2 4.6 c 2.2 0 4.2 -0.4 5.9 -1.1 l 4.9 12.3 c -3.3 1.3 -6.8 2 -10.7 2 h -0.2 c -4 0 -7.7 -0.8 -11.2 -2.3 s -6.6 -3.6 -9.2 -6.2 c -2.6 -2.6 -4.7 -5.7 -6.3 -9.2 c -1.5 -3.5 -2.3 -7.3 -2.3 -11.3 c 0 -4 0.7 -7.8 2 -11.3 c 1.3 -3.5 3.2 -6.6 5.5 -9.2 c 2.4 -2.6 5.2 -4.7 8.6 -6.2 c 3.3 -1.5 7 -2.3 10.9 -2.3 c 3.8 0 7.2 0.6 10.1 1.7 c 2.9 1.1 5.5 2.5 7.7 4.2 v -4.3 h 13.2 V 558 z"/>
		<path class="st10" d="M 1369.6 508.6 l -25.5 54.9 l -3.4 7.5 c -2.1 4.5 -5.1 8 -9.2 10.7 c -4.1 2.6 -8.6 4 -13.6 4 h -5.8 l 3.3 -13.2 h 3.2 c 2.1 0 4.1 -0.6 5.9 -1.8 c 1.8 -1.2 3.2 -2.7 4.1 -4.7 l 1.1 -2.4 l -25.5 -54.9 h 14.5 l 18.2 39.3 l 18.2 -39.3 H 1369.6 z"/>
	</g>
	<circle class="st9" cx="633.9" cy="480.6" r="155.2"/>
	<g>
		<g>
			<defs>
				<path id="SVGID_11_" d="M 747.5 480.3 c 0 -62.7 -52.2 -113.6 -116.5 -113.6 s -116.5 50.9 -116.5 113.6 c 0 62.7 52.2 113.6 116.5 113.6 S 747.5 543 747.5 480.3 z"/>
			</defs>
			<clipPath id="SVGID_12_">
				<use transform="matrix(1,0,0,1,0,0)" xlink:href="#SVGID_11_"  style="overflow: visible"/>
			</clipPath>
			<path class="st11" d="M 529.2 533.4 c 0 0 51.6 54.6 171.1 38.8 c 29.5 0 41.3 -2.9 41.3 -2.9 s -3.4 -38.7 -7.9 -35.8 c -4.4 2.9 -154.4 -0.1 -216.3 -30.3 C 495.3 543.4 529.2 533.4 529.2 533.4 z"/>
		</g>
		<g>
			<defs>
				<path id="SVGID_13_" d="M 747.5 480.3 c 0 -62.7 -52.2 -113.6 -116.5 -113.6 s -116.5 50.9 -116.5 113.6 c 0 62.7 52.2 113.6 116.5 113.6 S 747.5 543 747.5 480.3 z"/>
			</defs>
			<clipPath id="SVGID_14_">
				<use transform="matrix(1,0,0,1,0,0)" xlink:href="#SVGID_13_"  style="overflow: visible"/>
			</clipPath>
			<path class="st12" d="M 518.9 455.7 c 0 0 72.3 46.9 230.1 32.5 c 2.9 -8.6 -3.2 -31.7 -3.2 -31.7 s -138.4 0.6 -210.7 -35.4 C 513 426.9 520.4 435.6 518.9 455.7 z"/>
		</g>
		<g>
			<defs>
				<path id="SVGID_15_" d="M 747.5 480.3 c 0 -62.7 -52.2 -113.6 -116.5 -113.6 s -116.5 50.9 -116.5 113.6 c 0 62.7 52.2 113.6 116.5 113.6 S 747.5 543 747.5 480.3 z"/>
			</defs>
			<clipPath id="SVGID_16_">
				<use transform="matrix(1,0,0,1,0,0)" xlink:href="#SVGID_15_"  style="overflow: visible"/>
			</clipPath>
			<path class="st13" d="M 513 534.8 c 4.4 0 64.9 -23 125.3 76.2 c 35.4 -8.6 35.4 -8.6 35.4 -8.6 s -53.1 -122.2 -174 -100.7 C 496.8 526.2 513 534.8 513 534.8 z"/>
		</g>
		<g>
			<defs>
				<path id="SVGID_17_" d="M 747.5 480.3 c 0 -62.7 -52.2 -113.6 -116.5 -113.6 s -116.5 50.9 -116.5 113.6 c 0 62.7 52.2 113.6 116.5 113.6 S 747.5 543 747.5 480.3 z"/>
			</defs>
			<clipPath id="SVGID_18_">
				<use transform="matrix(1,0,0,1,0,0)" xlink:href="#SVGID_17_"  style="overflow: visible"/>
			</clipPath>
			<path class="st14" d="M 501.2 455.7 c 0 0 141.6 -18.7 209.4 135.2 c 39.8 -33.1 33.9 -38.8 33.9 -38.8 S 669.3 399.6 513 419.8 C 486.4 434.1 501.2 455.7 501.2 455.7 z"/>
		</g>
		<g>
			<defs>
				<path id="SVGID_19_" d="M 747.5 480.3 c 0 -62.7 -52.2 -113.6 -116.5 -113.6 s -116.5 50.9 -116.5 113.6 c 0 62.7 52.2 113.6 116.5 113.6 S 747.5 543 747.5 480.3 z"/>
			</defs>
			<clipPath id="SVGID_20_">
				<use transform="matrix(1,0,0,1,0,0)" xlink:href="#SVGID_19_"  style="overflow: visible"/>
			</clipPath>
			<path class="st15" d="M 549.9 392.4 c 0 0 122.4 -12.9 202 103.5 c 1.5 -11.5 1.5 -27.3 1.5 -27.3 s -57.5 -107.9 -177 -90.6 C 566.1 379.5 549.9 392.4 549.9 392.4 z"/>
		</g>
	</g>
</g>
</svg>
